<svg xmlns="http://www.w3.org/2000/svg" style="display: none;"><symbol id="telephone" viewBox="0 0 482.6 482.6"><title>telephone</title><path d="M98.339,320.8c47.6,56.9,104.9,101.7,170.3,133.4c24.9,11.8,58.2,25.8,95.3,28.2c2.3,0.1,4.5,0.2,6.8,0.2 c24.9,0,44.9-8.6,61.2-26.3c0.1-0.1,0.3-0.3,0.4-0.5c5.8-7,12.4-13.3,19.3-20c4.7-4.5,9.5-9.2,14.1-14 c21.3-22.2,21.3-50.4-0.2-71.9l-60.1-60.1c-10.2-10.6-22.4-16.2-35.2-16.2c-12.8,0-25.1,5.6-35.6,16.1l-35.8,35.8 c-3.3-1.9-6.7-3.6-9.9-5.2c-4-2-7.7-3.9-11-6c-32.6-20.7-62.2-47.7-90.5-82.4c-14.3-18.1-23.9-33.3-30.6-48.8 c9.4-8.5,18.2-17.4,26.7-26.1c3-3.1,6.1-6.2,9.2-9.3c10.8-10.8,16.6-23.3,16.6-36s-5.7-25.2-16.6-36l-29.8-29.8 c-3.5-3.5-6.8-6.9-10.2-10.4c-6.6-6.8-13.5-13.8-20.3-20.1c-10.3-10.1-22.4-15.4-35.2-15.4c-12.7,0-24.9,5.3-35.6,15.5l-37.4,37.4 c-13.6,13.6-21.3,30.1-22.9,49.2c-1.9,23.9,2.5,49.3,13.9,80C32.739,229.6,59.139,273.7,98.339,320.8z M25.739,104.2 c1.2-13.3,6.3-24.4,15.9-34l37.2-37.2c5.8-5.6,12.2-8.5,18.4-8.5c6.1,0,12.3,2.9,18,8.7c6.7,6.2,13,12.7,19.8,19.6 c3.4,3.5,6.9,7,10.4,10.6l29.8,29.8c6.2,6.2,9.4,12.5,9.4,18.7s-3.2,12.5-9.4,18.7c-3.1,3.1-6.2,6.3-9.3,9.4 c-9.3,9.4-18,18.3-27.6,26.8c-0.2,0.2-0.3,0.3-0.5,0.5c-8.3,8.3-7,16.2-5,22.2c0.1,0.3,0.2,0.5,0.3,0.8 c7.7,18.5,18.4,36.1,35.1,57.1c30,37,61.6,65.7,96.4,87.8c4.3,2.8,8.9,5,13.2,7.2c4,2,7.7,3.9,11,6c0.4,0.2,0.7,0.4,1.1,0.6 c3.3,1.7,6.5,2.5,9.7,2.5c8,0,13.2-5.1,14.9-6.8l37.4-37.4c5.8-5.8,12.1-8.9,18.3-8.9c7.6,0,13.8,4.7,17.7,8.9l60.3,60.2 c12,12,11.9,25-0.3,37.7c-4.2,4.5-8.6,8.8-13.3,13.3c-7,6.8-14.3,13.8-20.9,21.7c-11.5,12.4-25.2,18.2-42.9,18.2 c-1.7,0-3.5-0.1-5.2-0.2c-32.8-2.1-63.3-14.9-86.2-25.8c-62.2-30.1-116.8-72.8-162.1-127c-37.3-44.9-62.4-86.7-79-131.5 C28.039,146.4,24.139,124.3,25.739,104.2z"/></symbol><symbol id="photo-camera" viewBox="0 0 490 490"><title>photo-camera</title><path d="M0,167.85v216.2c0,33,26.8,59.8,59.8,59.8h370.4c33,0,59.8-26.8,59.8-59.8v-216.2c0-31.4-25.5-56.9-56.9-56.9h-79.6 l-1.9-8.3c-7.7-33.3-37-56.5-71.2-56.5h-70.9c-34.1,0-63.4,23.2-71.2,56.5l-1.9,8.3H56.9C25.5,110.95,0,136.55,0,167.85z M146.2,135.45c5.7,0,10.6-3.9,11.9-9.5l4.1-17.8c5.2-22.1,24.6-37.5,47.3-37.5h70.9c22.7,0,42.1,15.4,47.3,37.5l4.1,17.8 c1.3,5.5,6.2,9.5,11.9,9.5H433c17.9,0,32.4,14.5,32.4,32.4v216.2c0,19.5-15.8,35.3-35.3,35.3H59.8c-19.5,0-35.3-15.8-35.3-35.3 v-216.2c0-17.9,14.5-32.4,32.4-32.4H146.2z"/><circle cx="82.9" cy="187.75" r="16.4"/><path d="M245,380.95c56.7,0,102.9-46.2,102.9-102.9s-46.2-102.9-102.9-102.9s-102.9,46.1-102.9,102.9S188.3,380.95,245,380.95z M245,199.65c43.2,0,78.4,35.2,78.4,78.4s-35.2,78.4-78.4,78.4s-78.4-35.2-78.4-78.4S201.8,199.65,245,199.65z"/></symbol><symbol id="telephone-1" viewBox="0 0 487.766 487.766"><title>telephone-1</title><path d="M345.487,487.566c2.2,0.1,4.3,0.2,6.5,0.2c23.5,0,43.1-8.5,58.5-25.2c0.1-0.1,0.3-0.3,0.4-0.4 c5.5-6.6,11.7-12.6,18.3-18.9c4.5-4.3,9.1-8.7,13.4-13.3c20.5-21.4,20.4-48.5-0.2-69.1l-57-57c-9.8-10.2-21.5-15.6-33.9-15.6 c-12.3,0-24.1,5.3-34.2,15.4l-33.7,33.7c-3-1.7-6.1-3.2-9.1-4.7c-3.8-1.9-7.3-3.7-10.4-5.6c-30.9-19.6-58.9-45.2-85.7-78.1 c-13.5-17-22.4-31.2-28.7-45.8c8.8-8,17-16.3,24.9-24.4c2.9-2.9,5.8-5.9,8.8-8.9c21.4-21.4,21.4-47.9,0-69.2l-28.3-28.3 c-3.3-3.3-6.5-6.6-9.7-9.8c-6.3-6.4-12.8-13.1-19.3-19.1c-9.8-9.8-21.4-14.9-33.7-14.9c-12.2,0-24,5.1-34.2,14.9l-35.5,35.4 c-13,13-20.4,28.8-22,47.1c-1.8,22.8,2.4,47,13.2,76.2c16.7,45.1,41.8,87,79,131.8c45.3,54,99.7,96.7,161.9,126.8 C278.487,472.066,310.187,485.266,345.487,487.566z M111.787,318.266c-35.4-42.6-59.1-82.2-74.8-124.6 c-9.7-26.1-13.3-46.4-11.8-65.7c1.1-12.5,5.9-22.9,14.9-31.8l35.3-35.3c5.4-5.2,11.3-7.9,17.1-7.9c5.7,0,11.3,2.7,16.7,8 c6.3,5.9,12.4,12.1,18.8,18.6c3.2,3.3,6.5,6.7,9.9,10l28.3,28.3c11.6,11.6,11.6,23,0,34.6c-3,3-6,6-8.9,9 c-8.8,8.9-17,17.3-26.1,25.4c-0.2,0.2-0.3,0.3-0.5,0.5c-8.1,8.1-6.9,15.9-4.9,21.7c0.1,0.3,0.2,0.5,0.3,0.8 c7.3,17.6,17.6,34.3,33.4,54.3c28.5,35.1,58.5,62.4,91.7,83.5c4.1,2.6,8.4,4.8,12.6,6.9c3.8,1.9,7.3,3.7,10.4,5.6 c0.4,0.2,0.7,0.4,1.1,0.6c3.2,1.6,6.3,2.4,9.5,2.4c7.9,0,12.9-5,14.5-6.7l35.5-35.5c5.4-5.4,11.2-8.2,16.9-8.2 c7,0,12.7,4.4,16.4,8.2l57.2,57.2c14,14,7.6,26.6-0.3,34.9c-4,4.3-8.2,8.3-12.6,12.6c-6.7,6.4-13.6,13.1-19.9,20.6 c-10.8,11.6-23.6,17-40.3,17c-1.6,0-3.3-0.1-4.9-0.2c-31.1-2-59.9-14.1-81.6-24.4 C206.487,410.166,154.787,369.666,111.787,318.266z"/><path d="M268.087,89.266c-6.7-1.1-13,3.4-14.1,10c-1.1,6.7,3.4,13,10,14.1c27.5,4.7,52.5,17.7,72.5,37.6 c19.9,19.9,32.9,45,37.6,72.5c1,6,6.2,10.2,12.1,10.2c0.7,0,1.4-0.1,2.1-0.2c6.7-1.1,11.2-7.5,10-14.1 c-5.5-32.5-20.9-62.2-44.4-85.7C330.187,110.066,300.587,94.766,268.087,89.266z"/><path d="M475.187,229.466c0.7,0,1.4-0.1,2.1-0.2c6.7-1.1,11.2-7.5,10-14.1c-9.1-53.8-34.5-102.7-73.4-141.6 c-39-38.9-87.9-64.3-141.7-73.4c-6.7-1.1-13,3.4-14.1,10c-1.1,6.7,3.4,13,10,14.1c48.7,8.3,93.1,31.3,128.4,66.6 s58.3,79.7,66.6,128.4C464.087,225.266,469.287,229.466,475.187,229.466z"/></symbol><symbol id="cancel" viewBox="0 0 490.4 490.4"><title>cancel</title><path d="M245.2,490.4c135.2,0,245.2-110,245.2-245.2S380.4,0,245.2,0S0,110,0,245.2S110,490.4,245.2,490.4z M245.2,24.5 c121.7,0,220.7,99,220.7,220.7s-99,220.7-220.7,220.7s-220.7-99-220.7-220.7S123.5,24.5,245.2,24.5z"/><path d="M180.3,310.1c2.4,2.4,5.5,3.6,8.7,3.6s6.3-1.2,8.7-3.6l47.6-47.6l47.6,47.6c2.4,2.4,5.5,3.6,8.7,3.6s6.3-1.2,8.7-3.6 c4.8-4.8,4.8-12.5,0-17.3l-47.8-47.6l47.6-47.6c4.8-4.8,4.8-12.5,0-17.3s-12.5-4.8-17.3,0l-47.6,47.6l-47.6-47.6 c-4.8-4.8-12.5-4.8-17.3,0s-4.8,12.5,0,17.3l47.6,47.6l-47.6,47.6C175.5,297.6,175.5,305.3,180.3,310.1z"/></symbol><symbol id="placeholder" viewBox="0 0 488.8 488.8"><title>placeholder</title><path d="M244.252,97.4c-56.4,0-102.2,45.9-102.2,102.2s45.8,102.3,102.2,102.3s102.2-45.9,102.2-102.2S300.652,97.4,244.252,97.4z M244.252,277.4c-42.9,0-77.7-34.9-77.7-77.7s34.9-77.7,77.7-77.7s77.7,34.9,77.7,77.7S287.152,277.4,244.252,277.4z"/><path d="M244.252,0c-2.3,0-4.7,0-7,0.1c-98.6,3.4-180.1,80-189.5,178.1c-1.8,19-0.9,38.1,2.6,56.3c0,0,0.3,2.3,1.4,6.6 c3,13.5,7.5,26.6,13.2,38.8c20.3,48.1,64.8,122.2,161.4,202.4c5.1,4.2,11.5,6.5,18.1,6.5c6.6,0,13-2.3,18.1-6.5 c96.5-80.1,141-154.3,161.2-202c5.8-12.5,10.3-25.7,13.3-39.1c0.6-2.4,1-4.4,1.3-6.3c2.4-12.3,3.6-24.9,3.6-37.5 C441.752,88.6,353.152,0,244.252,0z M414.052,230.7c0,0.2-0.3,1.9-1,5c-2.7,11.8-6.6,23.3-11.8,34.7 c-19.3,45.6-61.7,116.1-154.4,193c-0.9,0.7-1.8,0.9-2.5,0.9c-0.6,0-1.6-0.2-2.5-0.9c-92.7-77-135.2-147.5-154.6-193.4 c-5.1-11-9-22.5-11.7-34.4c-0.6-2.6-0.9-4.2-1-4.7c0-0.2-0.1-0.4-0.1-0.6c-3.1-16.3-3.9-33.1-2.3-49.7c8.3-85.9,79.6-153,166-156 c98.1-3.4,179.1,75.4,179.1,172.9C417.252,208.5,416.152,219.5,414.052,230.7z"/></symbol><symbol id="menu" viewBox="0 0 486.8 486.8"><title>menu</title><path d="M140.35,32c0-17.6-14.4-32-32-32h-76.3c-17.6,0-32,14.4-32,32v76.2c0,17.6,14.4,32,32,32h76.2c17.6,0,32-14.4,32-32V32 H140.35z M115.85,108.3c0,4.1-3.4,7.5-7.5,7.5h-76.3c-4.1,0-7.5-3.4-7.5-7.5V32c0-4.1,3.4-7.5,7.5-7.5h76.2c4.1,0,7.5,3.4,7.5,7.5 v76.3H115.85z"/><path d="M140.35,205.3c0-17.6-14.4-32-32-32h-76.3c-17.6,0-32,14.4-32,32v76.2c0,17.6,14.4,32,32,32h76.2c17.6,0,32-14.4,32-32 v-76.2H140.35z M115.85,281.5c0,4.1-3.4,7.5-7.5,7.5h-76.3c-4.1,0-7.5-3.4-7.5-7.5v-76.2c0-4.1,3.4-7.5,7.5-7.5h76.2 c4.1,0,7.5,3.4,7.5,7.5v76.2H115.85z"/><path d="M108.35,346.5h-76.3c-17.6,0-32,14.4-32,32v76.2c0,17.6,14.4,32,32,32h76.2c17.6,0,32-14.4,32-32v-76.2 C140.35,360.9,125.95,346.5,108.35,346.5z M115.85,454.8c0,4.1-3.4,7.5-7.5,7.5h-76.3c-4.1,0-7.5-3.4-7.5-7.5v-76.2 c0-4.1,3.4-7.5,7.5-7.5h76.2c4.1,0,7.5,3.4,7.5,7.5v76.2H115.85z"/><path d="M173.35,281.5c0,17.6,14.4,32,32,32h76.2c17.6,0,32-14.4,32-32v-76.2c0-17.6-14.4-32-32-32h-76.2c-17.6,0-32,14.4-32,32 L173.35,281.5L173.35,281.5z M197.85,205.3c0-4.1,3.4-7.5,7.5-7.5h76.2c4.1,0,7.5,3.4,7.5,7.5v76.2c0,4.1-3.4,7.5-7.5,7.5h-76.2 c-4.1,0-7.5-3.4-7.5-7.5L197.85,205.3L197.85,205.3z"/><path d="M173.35,454.8c0,17.6,14.4,32,32,32h76.2c17.6,0,32-14.4,32-32v-76.2c0-17.6-14.4-32-32-32h-76.2c-17.6,0-32,14.4-32,32 L173.35,454.8L173.35,454.8z M197.85,378.5c0-4.1,3.4-7.5,7.5-7.5h76.2c4.1,0,7.5,3.4,7.5,7.5v76.2c0,4.1-3.4,7.5-7.5,7.5h-76.2 c-4.1,0-7.5-3.4-7.5-7.5L197.85,378.5L197.85,378.5z"/><path d="M346.55,281.5c0,17.6,14.4,32,32,32h76.2c17.6,0,32-14.4,32-32v-76.2c0-17.6-14.4-32-32-32h-76.2c-17.6,0-32,14.4-32,32 L346.55,281.5L346.55,281.5z M371.05,205.3c0-4.1,3.4-7.5,7.5-7.5h76.2c4.1,0,7.5,3.4,7.5,7.5v76.2c0,4.1-3.4,7.5-7.5,7.5h-76.2 c-4.1,0-7.5-3.4-7.5-7.5L371.05,205.3L371.05,205.3z"/><path d="M346.55,454.8c0,17.6,14.4,32,32,32h76.2c17.6,0,32-14.4,32-32v-76.2c0-17.6-14.4-32-32-32h-76.2c-17.6,0-32,14.4-32,32 L346.55,454.8L346.55,454.8z M371.05,378.5c0-4.1,3.4-7.5,7.5-7.5h76.2c4.1,0,7.5,3.4,7.5,7.5v76.2c0,4.1-3.4,7.5-7.5,7.5h-76.2 c-4.1,0-7.5-3.4-7.5-7.5L371.05,378.5L371.05,378.5z"/><path d="M173.35,32v76.2c0,17.6,14.4,32,32,32h76.2c17.6,0,32-14.4,32-32V32c0-17.6-14.4-32-32-32h-76.2 C187.65,0,173.35,14.4,173.35,32z M197.85,32c0-4.1,3.4-7.5,7.5-7.5h76.2c4.1,0,7.5,3.4,7.5,7.5v76.2c0,4.1-3.4,7.5-7.5,7.5h-76.2 c-4.1,0-7.5-3.4-7.5-7.5L197.85,32L197.85,32z"/><path d="M378.55,140.3h76.2c17.6,0,32-14.4,32-32V32c0-17.6-14.4-32-32-32h-76.2c-17.6,0-32,14.4-32,32v76.2 C346.55,125.9,360.95,140.3,378.55,140.3z M371.05,32c0-4.1,3.4-7.5,7.5-7.5h76.2c4.1,0,7.5,3.4,7.5,7.5v76.2 c0,4.1-3.4,7.5-7.5,7.5h-76.2c-4.1,0-7.5-3.4-7.5-7.5L371.05,32L371.05,32z"/></symbol><symbol id="video-camera" viewBox="0 0 79 79"><title>video-camera</title><path d="M0,44.866v20.008c0,4.685,4.312,8.115,8.996,8.115h41.008c4.685,0,7.996-3.431,7.996-8.115v-0.268l15.1,7.501 c0.28,0.142,0.464,0.215,0.777,0.215c2.943,0,5.123-2.396,5.123-5.454V40.976c0-3.058-2.055-5.452-4.998-5.452 c-0.312,0-0.494,0.073-0.773,0.213L58.284,43.28c-0.722-3.802-3.95-6.705-7.913-6.89c4.167-3.066,6.903-7.989,6.903-13.548 c0-9.28-7.541-16.831-16.822-16.831c-7.581,0-13.998,5.042-16.097,11.946c-2.309-2.322-5.501-3.764-9.027-3.764 c-7.024,0-12.738,5.715-12.738,12.738c0,3.867,1.489,7.331,4.219,9.669C3.055,37.481,0,40.848,0,44.866z M74.121,39.577 C74.723,39.76,75,40.387,75,40.976v25.892c0,0.59-0.277,1.218-0.877,1.401L58,60.125V47.678L74.121,39.577z M26.742,32.176 c1.039,1.464,2.307,2.813,3.75,3.813h-6.637C25.042,34.989,26.024,33.625,26.742,32.176z M27.63,22.843 c0-7.075,5.755-12.831,12.829-12.831c7.075,0,12.83,5.756,12.83,12.831c0,7.073-5.755,12.828-12.83,12.828 c-6.016,0-11.063-4.168-12.443-9.764c-0.056-0.693-0.17-1.368-0.333-2.025C27.655,23.538,27.63,23.193,27.63,22.843z M15.33,18.194c3.97,0,7.324,2.664,8.384,6.296c0.067,0.689,0.185,1.363,0.333,2.026c0.006,0.139,0.021,0.275,0.021,0.416 c0,4.818-3.92,8.738-8.738,8.738c-4.819,0-8.739-3.92-8.739-8.738S10.511,18.194,15.33,18.194z M54,64.493 c0,2.483-2.013,4.496-4.496,4.496H8.496C6.013,68.989,4,66.976,4,64.493V44.485c0-2.483,2.013-4.496,4.496-4.496h41.008 c2.483,0,4.496,2.013,4.496,4.496V64.493z"/></symbol><symbol id="profile" viewBox="0 0 563.43 563.43"><title>profile</title><path d="M280.79,314.559c83.266,0,150.803-67.538,150.803-150.803S364.055,13.415,280.79,13.415S129.987,80.953,129.987,163.756 S197.524,314.559,280.79,314.559z M280.79,52.735c61.061,0,111.021,49.959,111.021,111.021S341.851,274.776,280.79,274.776 s-111.021-49.959-111.021-111.021S219.728,52.735,280.79,52.735z"/><path d="M19.891,550.015h523.648c11.102,0,19.891-8.789,19.891-19.891c0-104.082-84.653-189.198-189.198-189.198H189.198 C85.116,340.926,0,425.579,0,530.124C0,541.226,8.789,550.015,19.891,550.015z M189.198,380.708h185.034 c75.864,0,138.313,56.436,148.028,129.524H41.17C50.884,437.607,113.334,380.708,189.198,380.708z"/></symbol><symbol id="search" viewBox="0 0 129 129"><title>search</title><path d="M51.6,96.7c11,0,21-3.9,28.8-10.5l35,35c0.8,0.8,1.8,1.2,2.9,1.2s2.1-0.4,2.9-1.2c1.6-1.6,1.6-4.2,0-5.8l-35-35 c6.5-7.8,10.5-17.9,10.5-28.8c0-24.9-20.2-45.1-45.1-45.1C26.8,6.5,6.5,26.8,6.5,51.6C6.5,76.5,26.8,96.7,51.6,96.7z M51.6,14.7 c20.4,0,36.9,16.6,36.9,36.9C88.5,72,72,88.5,51.6,88.5c-20.4,0-36.9-16.6-36.9-36.9C14.7,31.3,31.3,14.7,51.6,14.7z"/></symbol><symbol id="right-arrow" viewBox="0 0 129 129"><title>right-arrow</title><path d="m40.4,121.3c-0.8,0.8-1.8,1.2-2.9,1.2s-2.1-0.4-2.9-1.2c-1.6-1.6-1.6-4.2 0-5.8l51-51-51-51c-1.6-1.6-1.6-4.2 0-5.8 1.6-1.6 4.2-1.6 5.8,0l53.9,53.9c1.6,1.6 1.6,4.2 0,5.8l-53.9,53.9z"/></symbol><symbol id="left-arrow" viewBox="0 0 129 129"><title>left-arrow</title><path d="m88.6,121.3c0.8,0.8 1.8,1.2 2.9,1.2s2.1-0.4 2.9-1.2c1.6-1.6 1.6-4.2 0-5.8l-51-51 51-51c1.6-1.6 1.6-4.2 0-5.8s-4.2-1.6-5.8,0l-54,53.9c-1.6,1.6-1.6,4.2 0,5.8l54,53.9z"/></symbol><symbol id="settings" viewBox="0 0 478.703 478.703"><title>settings</title><path d="M454.2,189.101l-33.6-5.7c-3.5-11.3-8-22.2-13.5-32.6l19.8-27.7c8.4-11.8,7.1-27.9-3.2-38.1l-29.8-29.8 c-5.6-5.6-13-8.7-20.9-8.7c-6.2,0-12.1,1.9-17.1,5.5l-27.8,19.8c-10.8-5.7-22.1-10.4-33.8-13.9l-5.6-33.2 c-2.4-14.3-14.7-24.7-29.2-24.7h-42.1c-14.5,0-26.8,10.4-29.2,24.7l-5.8,34c-11.2,3.5-22.1,8.1-32.5,13.7l-27.5-19.8 c-5-3.6-11-5.5-17.2-5.5c-7.9,0-15.4,3.1-20.9,8.7l-29.9,29.8c-10.2,10.2-11.6,26.3-3.2,38.1l20,28.1 c-5.5,10.5-9.9,21.4-13.3,32.7l-33.2,5.6c-14.3,2.4-24.7,14.7-24.7,29.2v42.1c0,14.5,10.4,26.8,24.7,29.2l34,5.8 c3.5,11.2,8.1,22.1,13.7,32.5l-19.7,27.4c-8.4,11.8-7.1,27.9,3.2,38.1l29.8,29.8c5.6,5.6,13,8.7,20.9,8.7c6.2,0,12.1-1.9,17.1-5.5 l28.1-20c10.1,5.3,20.7,9.6,31.6,13l5.6,33.6c2.4,14.3,14.7,24.7,29.2,24.7h42.2c14.5,0,26.8-10.4,29.2-24.7l5.7-33.6 c11.3-3.5,22.2-8,32.6-13.5l27.7,19.8c5,3.6,11,5.5,17.2,5.5l0,0c7.9,0,15.3-3.1,20.9-8.7l29.8-29.8c10.2-10.2,11.6-26.3,3.2-38.1 l-19.8-27.8c5.5-10.5,10.1-21.4,13.5-32.6l33.6-5.6c14.3-2.4,24.7-14.7,24.7-29.2v-42.1 C478.9,203.801,468.5,191.501,454.2,189.101z M451.9,260.401c0,1.3-0.9,2.4-2.2,2.6l-42,7c-5.3,0.9-9.5,4.8-10.8,9.9 c-3.8,14.7-9.6,28.8-17.4,41.9c-2.7,4.6-2.5,10.3,0.6,14.7l24.7,34.8c0.7,1,0.6,2.5-0.3,3.4l-29.8,29.8c-0.7,0.7-1.4,0.8-1.9,0.8 c-0.6,0-1.1-0.2-1.5-0.5l-34.7-24.7c-4.3-3.1-10.1-3.3-14.7-0.6c-13.1,7.8-27.2,13.6-41.9,17.4c-5.2,1.3-9.1,5.6-9.9,10.8l-7.1,42 c-0.2,1.3-1.3,2.2-2.6,2.2h-42.1c-1.3,0-2.4-0.9-2.6-2.2l-7-42c-0.9-5.3-4.8-9.5-9.9-10.8c-14.3-3.7-28.1-9.4-41-16.8 c-2.1-1.2-4.5-1.8-6.8-1.8c-2.7,0-5.5,0.8-7.8,2.5l-35,24.9c-0.5,0.3-1,0.5-1.5,0.5c-0.4,0-1.2-0.1-1.9-0.8l-29.8-29.8 c-0.9-0.9-1-2.3-0.3-3.4l24.6-34.5c3.1-4.4,3.3-10.2,0.6-14.8c-7.8-13-13.8-27.1-17.6-41.8c-1.4-5.1-5.6-9-10.8-9.9l-42.3-7.2 c-1.3-0.2-2.2-1.3-2.2-2.6v-42.1c0-1.3,0.9-2.4,2.2-2.6l41.7-7c5.3-0.9,9.6-4.8,10.9-10c3.7-14.7,9.4-28.9,17.1-42 c2.7-4.6,2.4-10.3-0.7-14.6l-24.9-35c-0.7-1-0.6-2.5,0.3-3.4l29.8-29.8c0.7-0.7,1.4-0.8,1.9-0.8c0.6,0,1.1,0.2,1.5,0.5l34.5,24.6 c4.4,3.1,10.2,3.3,14.8,0.6c13-7.8,27.1-13.8,41.8-17.6c5.1-1.4,9-5.6,9.9-10.8l7.2-42.3c0.2-1.3,1.3-2.2,2.6-2.2h42.1 c1.3,0,2.4,0.9,2.6,2.2l7,41.7c0.9,5.3,4.8,9.6,10,10.9c15.1,3.8,29.5,9.7,42.9,17.6c4.6,2.7,10.3,2.5,14.7-0.6l34.5-24.8 c0.5-0.3,1-0.5,1.5-0.5c0.4,0,1.2,0.1,1.9,0.8l29.8,29.8c0.9,0.9,1,2.3,0.3,3.4l-24.7,34.7c-3.1,4.3-3.3,10.1-0.6,14.7 c7.8,13.1,13.6,27.2,17.4,41.9c1.3,5.2,5.6,9.1,10.8,9.9l42,7.1c1.3,0.2,2.2,1.3,2.2,2.6v42.1H451.9z"/><path d="M239.4,136.001c-57,0-103.3,46.3-103.3,103.3s46.3,103.3,103.3,103.3s103.3-46.3,103.3-103.3S296.4,136.001,239.4,136.001 z M239.4,315.601c-42.1,0-76.3-34.2-76.3-76.3s34.2-76.3,76.3-76.3s76.3,34.2,76.3,76.3S281.5,315.601,239.4,315.601z"/></symbol><symbol id="share" viewBox="0 0 481.6 481.6"><title>share</title><path d="M381.6,309.4c-27.7,0-52.4,13.2-68.2,33.6l-132.3-73.9c3.1-8.9,4.8-18.5,4.8-28.4c0-10-1.7-19.5-4.9-28.5l132.2-73.8 c15.7,20.5,40.5,33.8,68.3,33.8c47.4,0,86.1-38.6,86.1-86.1S429,0,381.5,0s-86.1,38.6-86.1,86.1c0,10,1.7,19.6,4.9,28.5 l-132.1,73.8c-15.7-20.6-40.5-33.8-68.3-33.8c-47.4,0-86.1,38.6-86.1,86.1s38.7,86.1,86.2,86.1c27.8,0,52.6-13.3,68.4-33.9 l132.2,73.9c-3.2,9-5,18.7-5,28.7c0,47.4,38.6,86.1,86.1,86.1s86.1-38.6,86.1-86.1S429.1,309.4,381.6,309.4z M381.6,27.1 c32.6,0,59.1,26.5,59.1,59.1s-26.5,59.1-59.1,59.1s-59.1-26.5-59.1-59.1S349.1,27.1,381.6,27.1z M100,299.8 c-32.6,0-59.1-26.5-59.1-59.1s26.5-59.1,59.1-59.1s59.1,26.5,59.1,59.1S132.5,299.8,100,299.8z M381.6,454.5 c-32.6,0-59.1-26.5-59.1-59.1c0-32.6,26.5-59.1,59.1-59.1s59.1,26.5,59.1,59.1C440.7,428,414.2,454.5,381.6,454.5z"/></symbol><symbol id="instagram-logo" viewBox="0 0 169.063 169.063"><title>instagram-logo</title><path d="M122.406,0H46.654C20.929,0,0,20.93,0,46.655v75.752c0,25.726,20.929,46.655,46.654,46.655h75.752 c25.727,0,46.656-20.93,46.656-46.655V46.655C169.063,20.93,148.133,0,122.406,0z M154.063,122.407 c0,17.455-14.201,31.655-31.656,31.655H46.654C29.2,154.063,15,139.862,15,122.407V46.655C15,29.201,29.2,15,46.654,15h75.752 c17.455,0,31.656,14.201,31.656,31.655V122.407z"/><path d="M84.531,40.97c-24.021,0-43.563,19.542-43.563,43.563c0,24.02,19.542,43.561,43.563,43.561s43.563-19.541,43.563-43.561 C128.094,60.512,108.552,40.97,84.531,40.97z M84.531,113.093c-15.749,0-28.563-12.812-28.563-28.561 c0-15.75,12.813-28.563,28.563-28.563s28.563,12.813,28.563,28.563C113.094,100.281,100.28,113.093,84.531,113.093z"/><path d="M129.921,28.251c-2.89,0-5.729,1.17-7.77,3.22c-2.051,2.04-3.23,4.88-3.23,7.78c0,2.891,1.18,5.73,3.23,7.78 c2.04,2.04,4.88,3.22,7.77,3.22c2.9,0,5.73-1.18,7.78-3.22c2.05-2.05,3.22-4.89,3.22-7.78c0-2.9-1.17-5.74-3.22-7.78 C135.661,29.421,132.821,28.251,129.921,28.251z"/></symbol><symbol id="twitter-logo" viewBox="0 0 486.392 486.392"><title>twitter-logo</title><path d="M395.193,0H91.198C40.826,0,0,40.826,0,91.198v303.995c0,50.372,40.826,91.198,91.198,91.198 h303.995c50.372,0,91.198-40.827,91.198-91.198V91.198C486.392,40.826,445.565,0,395.193,0z M364.186,188.598l0.182,7.752 c0,79.16-60.221,170.359-170.359,170.359c-33.804,0-65.268-9.91-91.776-26.904c4.682,0.547,9.454,0.851,14.288,0.851 c28.059,0,53.868-9.576,74.357-25.627c-26.204-0.486-48.305-17.814-55.935-41.586c3.678,0.669,7.387,1.034,11.278,1.034 c5.472,0,10.761-0.699,15.777-2.067c-27.39-5.533-48.031-29.7-48.031-58.701v-0.76c8.086,4.499,17.297,7.174,27.116,7.509 c-16.051-10.731-26.63-29.062-26.63-49.825c0-10.974,2.949-21.249,8.086-30.095c29.518,36.236,73.658,60.069,123.422,62.562 c-1.034-4.378-1.55-8.968-1.55-13.649c0-33.044,26.812-59.857,59.887-59.857c17.206,0,32.771,7.265,43.714,18.908 c13.619-2.706,26.448-7.691,38.03-14.531c-4.469,13.984-13.953,25.718-26.326,33.135c12.069-1.429,23.651-4.682,34.382-9.424 C386.073,169.659,375.889,180.208,364.186,188.598z"/></symbol><symbol id="telegram" viewBox="0 0 455 455"><title>telegram</title><path style="fill-rule:evenodd;clip-rule:evenodd;" d="M0,0v455h455V0H0z M384.814,100.68l-53.458,257.136 c-1.259,6.071-8.378,8.822-13.401,5.172l-72.975-52.981c-4.43-3.217-10.471-3.046-14.712,0.412l-40.46,32.981 c-4.695,3.84-11.771,1.7-13.569-4.083l-28.094-90.351l-72.583-27.089c-7.373-2.762-7.436-13.171-0.084-16.003L373.36,90.959 C379.675,88.517,386.19,94.049,384.814,100.68z"/><path style="fill-rule:evenodd;clip-rule:evenodd;" d="M313.567,147.179l-141.854,87.367c-5.437,3.355-7.996,9.921-6.242,16.068 l15.337,53.891c1.091,3.818,6.631,3.428,7.162-0.517l3.986-29.553c0.753-5.564,3.406-10.693,7.522-14.522l117.069-108.822 C318.739,149.061,316.115,145.614,313.567,147.179z"/></symbol><symbol id="prize" viewBox="-55 0 511 511.9999"><title>prize</title><path d="M 335.175781 190.992188 C 335.175781 117.195312 275.136719 57.15625 201.339844 57.15625 C 127.539062 57.15625 67.5 117.195312 67.5 190.992188 C 67.5 264.792969 127.539062 324.832031 201.339844 324.832031 C 275.136719 324.832031 335.175781 264.792969 335.175781 190.992188 Z M 201.339844 309.832031 C 135.8125 309.832031 82.5 256.519531 82.5 190.992188 C 82.5 125.46875 135.8125 72.15625 201.339844 72.15625 C 266.867188 72.15625 320.175781 125.46875 320.175781 190.992188 C 320.175781 256.519531 266.867188 309.832031 201.339844 309.832031 Z M 201.339844 309.832031 " style=" stroke:none;fill-rule:nonzero;fill:rgb(0%,0%,0%);fill-opacity:1;"/><path d="M 294.546875 161.652344 C 293.132812 157.292969 289.105469 154.367188 284.523438 154.367188 L 228.632812 154.367188 L 211.363281 101.214844 C 209.945312 96.859375 205.917969 93.933594 201.339844 93.933594 C 196.761719 93.933594 192.734375 96.859375 191.316406 101.214844 L 174.046875 154.371094 L 118.15625 154.371094 C 113.574219 154.371094 109.546875 157.296875 108.132812 161.652344 C 106.71875 166.007812 108.257812 170.742188 111.960938 173.433594 L 157.175781 206.285156 L 139.90625 259.4375 C 138.492188 263.792969 140.027344 268.53125 143.734375 271.222656 C 147.4375 273.914062 152.417969 273.914062 156.125 271.222656 L 201.339844 238.371094 L 246.554688 271.222656 C 248.410156 272.570312 250.578125 273.242188 252.75 273.242188 C 254.921875 273.242188 257.09375 272.570312 258.945312 271.222656 C 262.652344 268.53125 264.1875 263.792969 262.773438 259.4375 L 245.5 206.285156 L 290.714844 173.433594 C 294.421875 170.742188 295.960938 166.007812 294.546875 161.652344 Z M 234.0625 196.054688 C 230.359375 198.746094 228.820312 203.480469 230.234375 207.839844 L 244.261719 251.015625 L 207.535156 224.332031 C 205.679688 222.984375 203.511719 222.3125 201.339844 222.3125 C 199.167969 222.3125 196.996094 222.984375 195.144531 224.332031 L 158.417969 251.015625 L 172.445312 207.835938 C 173.859375 203.480469 172.320312 198.746094 168.617188 196.054688 L 131.886719 169.367188 L 177.289062 169.367188 C 181.867188 169.367188 185.894531 166.441406 187.3125 162.085938 L 201.339844 118.90625 L 215.367188 162.085938 C 216.785156 166.441406 220.8125 169.367188 225.390625 169.367188 L 270.792969 169.367188 Z M 234.0625 196.054688 " style=" stroke:none;fill-rule:nonzero;fill:rgb(0%,0%,0%);fill-opacity:1;"/><path d="M 400.640625 439.113281 L 330.316406 315.652344 L 342.636719 311.699219 C 357.480469 306.941406 367.277344 292.746094 366.464844 277.179688 L 365.53125 259.300781 C 365.246094 253.890625 367.261719 248.570312 371.0625 244.707031 L 383.621094 231.945312 C 394.550781 220.832031 396.628906 203.710938 388.675781 190.304688 L 379.539062 174.910156 C 376.773438 170.25 376.089844 164.601562 377.65625 159.414062 L 382.84375 142.277344 C 387.359375 127.359375 381.242188 111.234375 367.972656 103.0625 L 352.726562 93.671875 C 348.113281 90.832031 344.878906 86.152344 343.859375 80.828125 L 340.488281 63.246094 C 337.554688 47.9375 324.644531 36.5 309.09375 35.429688 L 291.230469 34.203125 C 285.824219 33.832031 280.789062 31.1875 277.414062 26.949219 L 266.253906 12.945312 C 256.542969 0.757812 239.792969 -3.367188 225.53125 2.910156 L 209.144531 10.125 C 209.144531 10.125 209.144531 10.125 209.140625 10.125 C 204.183594 12.308594 198.496094 12.308594 193.535156 10.125 L 177.148438 2.910156 C 162.882812 -3.367188 146.136719 0.757812 136.421875 12.949219 L 125.265625 26.949219 C 121.890625 31.1875 116.855469 33.832031 111.449219 34.203125 L 93.585938 35.429688 C 78.035156 36.5 65.125 47.9375 62.191406 63.246094 L 58.820312 80.828125 C 57.796875 86.148438 54.566406 90.832031 49.953125 93.671875 L 34.707031 103.058594 C 21.4375 111.230469 15.320312 127.359375 19.835938 142.277344 L 25.019531 159.414062 C 26.589844 164.601562 25.90625 170.246094 23.140625 174.90625 L 14.003906 190.304688 C 6.050781 203.707031 8.128906 220.832031 19.058594 231.941406 L 31.617188 244.707031 C 35.414062 248.570312 37.433594 253.886719 37.148438 259.296875 L 36.214844 277.179688 C 35.402344 292.742188 45.199219 306.9375 60.039062 311.699219 L 72.363281 315.648438 L 2.039062 439.113281 C -0.0859375 442.84375 -0.0078125 447.429688 2.246094 451.085938 C 4.5 454.742188 8.582031 456.882812 12.851562 456.648438 L 71.628906 453.605469 L 98.992188 505.71875 C 100.988281 509.515625 104.894531 511.925781 109.1875 511.996094 C 109.253906 511.996094 109.320312 512 109.386719 512 C 113.601562 512 117.5 509.742188 119.589844 506.070312 L 191.15625 380.421875 C 194.46875 381.449219 197.902344 381.984375 201.339844 381.984375 C 204.777344 381.984375 208.207031 381.449219 211.523438 380.421875 L 283.089844 506.070312 C 285.179688 509.742188 289.074219 512 293.289062 512 C 293.355469 512 293.425781 512 293.492188 511.996094 C 297.785156 511.925781 301.691406 509.519531 303.6875 505.71875 L 331.046875 453.605469 L 389.828125 456.648438 C 394.132812 456.875 398.179688 454.738281 400.429688 451.085938 C 402.683594 447.429688 402.765625 442.84375 400.640625 439.113281 Z M 109.503906 493.472656 L 84.582031 446.011719 L 99.296875 420.183594 C 101.347656 416.582031 100.09375 412.003906 96.492188 409.953125 C 92.898438 407.90625 88.316406 409.160156 86.265625 412.757812 L 71.550781 438.589844 L 18.019531 441.363281 L 85.605469 322.710938 C 86.878906 324.136719 87.957031 325.75 88.769531 327.515625 L 96.253906 343.785156 C 100.136719 352.226562 107.136719 358.484375 115.40625 361.589844 L 103.6875 382.167969 C 101.636719 385.765625 102.894531 390.347656 106.492188 392.398438 C 107.664062 393.0625 108.941406 393.378906 110.199219 393.378906 C 112.804688 393.378906 115.339844 392.019531 116.722656 389.589844 L 131.5625 363.539062 C 132.171875 363.464844 132.78125 363.382812 133.390625 363.273438 L 151.03125 360.191406 C 156.363281 359.257812 161.886719 360.621094 166.179688 363.925781 L 178.074219 373.085938 Z M 211.089844 364.339844 C 211.0625 364.355469 211.039062 364.363281 211.015625 364.378906 C 210.976562 364.402344 210.9375 364.429688 210.898438 364.453125 C 204.980469 367.816406 197.699219 367.816406 191.78125 364.453125 C 191.742188 364.429688 191.707031 364.402344 191.664062 364.378906 C 191.640625 364.363281 191.617188 364.355469 191.59375 364.339844 C 190.882812 363.925781 190.1875 363.480469 189.523438 362.96875 L 175.335938 352.042969 C 169.292969 347.386719 161.875 344.902344 154.335938 344.902344 C 152.375 344.902344 150.40625 345.074219 148.449219 345.414062 L 130.808594 348.496094 C 129.671875 348.695312 128.535156 348.785156 127.410156 348.78125 C 127.316406 348.777344 127.226562 348.773438 127.136719 348.773438 C 119.8125 348.644531 113.03125 344.359375 109.882812 337.511719 L 102.398438 321.246094 C 99.199219 314.289062 93.75 308.636719 87.042969 305.136719 C 87.027344 305.128906 87.015625 305.117188 87 305.109375 C 86.957031 305.085938 86.914062 305.066406 86.875 305.046875 C 86.714844 304.964844 86.554688 304.882812 86.394531 304.804688 C 86.355469 304.785156 86.324219 304.769531 86.285156 304.753906 C 84.800781 304.023438 83.261719 303.394531 81.671875 302.882812 L 64.621094 297.417969 C 56.257812 294.734375 50.734375 286.734375 51.195312 277.964844 L 52.128906 260.082031 C 52.628906 250.480469 49.050781 241.042969 42.308594 234.191406 L 29.753906 221.425781 C 23.59375 215.164062 22.421875 205.515625 26.902344 197.960938 L 36.039062 182.5625 C 40.945312 174.292969 42.164062 164.273438 39.378906 155.070312 L 34.191406 137.933594 C 31.644531 129.527344 35.09375 120.4375 42.574219 115.835938 L 57.820312 106.445312 C 66.007812 101.402344 71.742188 93.097656 73.550781 83.652344 L 76.921875 66.070312 C 78.574219 57.445312 85.851562 51 94.613281 50.394531 L 112.476562 49.167969 C 122.066406 48.507812 131.003906 43.816406 136.996094 36.296875 L 148.152344 22.296875 C 153.628906 15.425781 163.066406 13.101562 171.105469 16.640625 L 187.488281 23.851562 C 196.289062 27.726562 206.386719 27.726562 215.183594 23.851562 L 231.570312 16.640625 C 239.613281 13.101562 249.046875 15.425781 254.519531 22.296875 L 265.679688 36.300781 C 271.667969 43.820312 280.609375 48.507812 290.199219 49.167969 L 308.0625 50.398438 C 316.824219 51 324.101562 57.445312 325.753906 66.070312 L 329.125 83.65625 C 330.9375 93.097656 336.671875 101.40625 344.855469 106.445312 L 360.101562 115.835938 C 367.582031 120.441406 371.03125 129.527344 368.484375 137.933594 L 363.296875 155.074219 C 360.511719 164.273438 361.730469 174.292969 366.636719 182.566406 L 375.773438 197.960938 C 380.253906 205.515625 379.085938 215.164062 372.921875 221.425781 L 360.367188 234.191406 C 353.625 241.042969 350.046875 250.480469 350.546875 260.085938 L 351.480469 277.964844 C 351.941406 286.734375 346.417969 294.734375 338.054688 297.417969 L 321.003906 302.882812 C 319.414062 303.394531 317.875 304.023438 316.390625 304.75 C 316.351562 304.769531 316.316406 304.785156 316.28125 304.800781 C 316.121094 304.882812 315.957031 304.964844 315.796875 305.046875 C 315.757812 305.070312 315.714844 305.085938 315.675781 305.109375 C 315.660156 305.117188 315.648438 305.125 315.636719 305.132812 C 308.925781 308.632812 303.476562 314.289062 300.277344 321.246094 L 292.792969 337.515625 C 289.648438 344.355469 282.875 348.640625 275.554688 348.773438 C 275.449219 348.773438 275.339844 348.777344 275.234375 348.785156 C 274.117188 348.785156 272.992188 348.695312 271.863281 348.496094 L 254.226562 345.414062 C 244.753906 343.757812 234.953125 346.175781 227.335938 352.042969 L 213.152344 362.96875 C 212.492188 363.480469 211.796875 363.925781 211.089844 364.339844 Z M 331.128906 438.589844 L 316.292969 412.546875 C 314.242188 408.945312 309.660156 407.691406 306.066406 409.742188 C 302.464844 411.792969 301.210938 416.371094 303.261719 419.972656 L 318.09375 446.011719 L 293.175781 493.472656 L 224.605469 373.085938 L 236.496094 363.925781 C 240.789062 360.621094 246.3125 359.257812 251.648438 360.191406 L 269.285156 363.273438 C 269.894531 363.382812 270.507812 363.464844 271.117188 363.539062 L 285.949219 389.582031 C 287.332031 392.007812 289.867188 393.371094 292.472656 393.371094 C 293.730469 393.371094 295.007812 393.054688 296.179688 392.386719 C 299.777344 390.335938 301.03125 385.757812 298.984375 382.15625 L 287.269531 361.589844 C 295.539062 358.480469 302.539062 352.226562 306.421875 343.785156 L 313.90625 327.515625 C 314.71875 325.75 315.796875 324.136719 317.070312 322.710938 L 384.65625 441.363281 Z M 331.128906 438.589844 " style=" stroke:none;fill-rule:nonzero;fill:rgb(0%,0%,0%);fill-opacity:1;"/></symbol><symbol id="bookmark-white" viewBox="0 0 431.972 431.972"><title>bookmark-white</title><path d="M393.146,14.279c-3.713-5.333-8.713-9.233-14.989-11.707c-3.997-1.711-8.186-2.568-12.565-2.568V0H66.378 c-4.377,0-8.562,0.857-12.56,2.568c-6.28,2.472-11.278,6.377-14.989,11.707c-3.71,5.33-5.568,11.228-5.568,17.701v368.019 c0,6.475,1.858,12.371,5.568,17.706c3.711,5.329,8.709,9.233,14.989,11.704c3.994,1.711,8.183,2.566,12.56,2.566 c8.949,0,16.844-3.142,23.698-9.418l125.91-121.062l125.91,121.065c6.663,6.081,14.562,9.127,23.695,9.127 c4.76,0,8.948-0.756,12.565-2.279c6.276-2.471,11.276-6.375,14.989-11.711c3.71-5.328,5.564-11.225,5.564-17.699V31.98 C398.71,25.507,396.852,19.609,393.146,14.279z M362.166,391.139L241.397,275.224l-25.411-24.264l-25.409,24.264L69.809,391.139 V36.549h292.357V391.139L362.166,391.139z"/></symbol><symbol id="commenting" viewBox="0 0 16 16"><title>commenting</title><path fill="#444444" d="M3 11.2c0 0.1 0 0.1 0 0 0 0.1 0 0.1 0 0 0 0 0 0 0 0z"/><path fill="#444444" d="M8.3 1c-4.4 0-8.3 2.6-8.3 5.6 0 2 1.1 3.7 3 4.7 0 0 0 0 0 0s0 0.1 0 0.1c-0.1 1.3-0.9 1.7-0.9 1.7l-1.8 0.9h2c2.5 0 4.3-1.1 5.1-1.9 0.3 0 0.6 0 0.8 0 4.3 0 7.8-2.5 7.8-5.6s-3.4-5.5-7.7-5.5zM8.2 11.1c-0.3 0-0.7 0-0.9 0h-0.2l-0.2 0.2c-0.5 0.5-1.6 1.4-3.3 1.7 0.3-0.5 0.5-1.1 0.5-2v-0.3l-0.3-0.1c-1.8-0.9-2.8-2.3-2.8-4 0-2.4 3.5-4.6 7.3-4.6 3.7 0 6.7 2 6.7 4.6 0 2.4-3.1 4.5-6.8 4.5z"/><path fill="#444444" d="M6 7c0 0.552-0.448 1-1 1s-1-0.448-1-1c0-0.552 0.448-1 1-1s1 0.448 1 1z"/><path fill="#444444" d="M9 7c0 0.552-0.448 1-1 1s-1-0.448-1-1c0-0.552 0.448-1 1-1s1 0.448 1 1z"/><path fill="#444444" d="M12 7c0 0.552-0.448 1-1 1s-1-0.448-1-1c0-0.552 0.448-1 1-1s1 0.448 1 1z"/></symbol><symbol id="placeholder-filled-point" viewBox="0 0 97.713 97.713"><title>placeholder-filled-point</title><path d="M48.855,0C29.021,0,12.883,16.138,12.883,35.974c0,5.174,1.059,10.114,3.146,14.684 c8.994,19.681,26.238,40.46,31.31,46.359c0.38,0.441,0.934,0.695,1.517,0.695s1.137-0.254,1.517-0.695 c5.07-5.898,22.314-26.676,31.311-46.359c2.088-4.57,3.146-9.51,3.146-14.684C84.828,16.138,68.69,0,48.855,0z M48.855,54.659 c-10.303,0-18.686-8.383-18.686-18.686c0-10.304,8.383-18.687,18.686-18.687s18.686,8.383,18.686,18.687 C67.542,46.276,59.159,54.659,48.855,54.659z"/></symbol><symbol id="email-envelope-outline-shape-with-rounded-corners" viewBox="0 0 512 512"><title>email-envelope-outline-shape-with-rounded-corners</title><path d="M448,64H64C28.656,64,0,92.656,0,128v256c0,35.344,28.656,64,64,64h384c35.344,0,64-28.656,64-64V128 C512,92.656,483.344,64,448,64z M342.656,234.781l135.469-116.094c0.938,3,1.875,6,1.875,9.313v256 c0,2.219-0.844,4.188-1.281,6.281L342.656,234.781z M448,96c2.125,0,4,0.813,6,1.219L256,266.938L58,97.219 C60,96.813,61.875,96,64,96H448z M33.266,390.25C32.828,388.156,32,386.219,32,384V128c0-3.313,0.953-6.313,1.891-9.313 L169.313,234.75L33.266,390.25z M64,416c-3.234,0-6.172-0.938-9.125-1.844l138.75-158.563l51.969,44.531 C248.578,302.719,252.297,304,256,304s7.422-1.281,10.406-3.875l51.969-44.531l138.75,158.563C454.188,415.062,451.25,416,448,416 H64z"/></symbol><symbol id="visitor-identification" viewBox="0 0 293.709 293.709"><title>visitor-identification</title><path d="M251.742,58.307c0,0,0-2.502,0-5.58s-0.386-9.894-3.878-13.168c-1.757-1.648-4.297-2.904-7.93-2.904 h-19.668c0,0-10.481,0-10.481,9.834V56.98c0,11.166-20.511,10.878-20.511,10.878l-84.469,0.044c0,0-20.897-0.462-20.897-9.589 V44.954c0,0,0.658-8.501-10.492-8.501H52.449c0,0-10.514,0-10.514,9.159v12.706c0,0,0.375,5.461-8.126,8.246 c-6.478,2.121-20.641,0.109-27.489,5.972C2.768,75.57,0,80.65,0,89.097v147.839c0,0,0.647,20.32,20.973,20.32h250.436 c0,0,22.3-1.305,22.3-19.662V88.45c0,0-0.68-20.309-21.647-20.309C272.062,68.135,251.742,66.803,251.742,58.307z M220.26,57.627 c0-5.776,4.068-10.487,9.834-10.487h0.658c5.798,0,10.508,4.71,10.508,10.487v20.989c0,5.776-4.373,10.481-10.171,10.481h-0.658 c-5.798,0-10.171-4.699-10.171-10.481V57.627z M184.335,162.525h52.449c2.888,0,5.232,2.339,5.232,5.254 c0,2.888-2.344,5.238-5.232,5.238h-52.449c-2.888,0-5.254-2.35-5.254-5.238C179.081,164.863,181.447,162.525,184.335,162.525z M241.701,189.405c0,3.089-2.491,4.911-5.564,4.911h-51.144c-3.073,0-5.575-1.822-5.575-4.911c0-3.073,2.497-5.575,5.575-5.575 h51.144C239.21,183.829,241.701,186.331,241.701,189.405z M89.674,99.627c16.176,0,29.289,14.354,29.289,33.711 c0,19.363-13.114,35.077-29.289,35.077s-29.278-15.713-29.278-35.077C60.395,113.981,73.498,99.627,89.674,99.627z M52.764,57.072 c0-5.776,4.036-9.834,9.834-9.834h0.658c5.798,0,10.16,4.052,10.16,9.834v21.544c0,5.776-4.71,10.481-10.481,10.481H62.25 c-5.765,0-9.486-4.699-9.486-10.481C52.764,78.616,52.764,57.072,52.764,57.072z M144.489,212.64 c-2.567,3.688-8.322,3.198-8.322,3.198H44.133c0,0-6.211,0.408-8.947-3.361c-1.474-2.034-0.451-6.162,0.566-8.469l2.48-5.64 c0,0,6.842-15.306,14.637-24.182c4.786-5.439,10.481-4.199,14.163-2.431c2.268,1.088,4.835,4.264,6.706,5.945 c2.584,2.317,7.141,4.95,14.598,5.096h4.574c7.452-0.141,12.009-2.779,14.588-5.096c1.876-1.681,4.368-4.95,6.614-6.075 c3.383-1.692,8.523-2.73,13.184,2.567c7.8,8.877,13.968,24.465,13.968,24.465l2.535,5.532 C144.848,206.467,145.925,210.573,144.489,212.64z M237.285,214.968h-53.439c-2.807,0-5.075-2.252-5.075-5.069 c0-2.812,2.268-5.096,5.075-5.096h53.439c2.779,0,5.075,2.284,5.075,5.096C242.359,212.716,240.064,214.968,237.285,214.968z"/></symbol><symbol id="menu-1" viewBox="0 0 512 512"><title>menu-1</title><g> <g> <path d="M176.792,0H59.208C26.561,0,0,26.561,0,59.208v117.584C0,209.439,26.561,236,59.208,236h117.584 C209.439,236,236,209.439,236,176.792V59.208C236,26.561,209.439,0,176.792,0z M196,176.792c0,10.591-8.617,19.208-19.208,19.208 H59.208C48.617,196,40,187.383,40,176.792V59.208C40,48.617,48.617,40,59.208,40h117.584C187.383,40,196,48.617,196,59.208 V176.792z"/> </g> </g><g> <g> <path d="M452,0H336c-33.084,0-60,26.916-60,60v116c0,33.084,26.916,60,60,60h116c33.084,0,60-26.916,60-60V60 C512,26.916,485.084,0,452,0z M472,176c0,11.028-8.972,20-20,20H336c-11.028,0-20-8.972-20-20V60c0-11.028,8.972-20,20-20h116 c11.028,0,20,8.972,20,20V176z"/> </g> </g><g> <g> <path d="M176.792,276H59.208C26.561,276,0,302.561,0,335.208v117.584C0,485.439,26.561,512,59.208,512h117.584 C209.439,512,236,485.439,236,452.792V335.208C236,302.561,209.439,276,176.792,276z M196,452.792 c0,10.591-8.617,19.208-19.208,19.208H59.208C48.617,472,40,463.383,40,452.792V335.208C40,324.617,48.617,316,59.208,316h117.584 c10.591,0,19.208,8.617,19.208,19.208V452.792z"/> </g> </g><g> <g> <path d="M452,276H336c-33.084,0-60,26.916-60,60v116c0,33.084,26.916,60,60,60h116c33.084,0,60-26.916,60-60V336 C512,302.916,485.084,276,452,276z M472,452c0,11.028-8.972,20-20,20H336c-11.028,0-20-8.972-20-20V336c0-11.028,8.972-20,20-20 h116c11.028,0,20,8.972,20,20V452z"/> </g> </g></symbol><symbol id="calendar" viewBox="0 0 58 58"><title>calendar</title><path d="M46,34c-6.617,0-12,5.383-12,12s5.383,12,12,12s12-5.383,12-12S52.617,34,46,34z M46,56c-5.514,0-10-4.486-10-10 s4.486-10,10-10s10,4.486,10,10S51.514,56,46,56z"/><path d="M52,45h-5v-5c0-0.553-0.447-1-1-1s-1,0.447-1,1v6c0,0.553,0.447,1,1,1h6c0.553,0,1-0.447,1-1S52.553,45,52,45z"/><path d="M27,21h-2h-7h-2H7v9v2v7v2v9h9h2h9v-9v-2v-7h7h2h9V21h-9h-2H27z M36,23h7v7h-7V23z M18,23h7v7h-7V23z M9,23h7v7H9V23z M9,32h7v7H9V32z M16,48H9v-7h7V48z M25,48h-7v-7h7V48z M25,39h-7v-7h7V39z M34,30h-7v-7h7V30z"/><path d="M33,55H2V16h48v13c0,0.553,0.447,1,1,1s1-0.447,1-1V15V5c0-0.553-0.447-1-1-1h-5V1c0-0.553-0.447-1-1-1h-7 c-0.553,0-1,0.447-1,1v3H15V1c0-0.553-0.447-1-1-1H7C6.447,0,6,0.447,6,1v3H1C0.447,4,0,4.447,0,5v10v41c0,0.553,0.447,1,1,1h32 c0.553,0,1-0.447,1-1S33.553,55,33,55z M39,2h5v3v3h-5V5V2z M8,2h5v3v3H8V5V2z M2,6h4v3c0,0.553,0.447,1,1,1h7c0.553,0,1-0.447,1-1 V6h22v3c0,0.553,0.447,1,1,1h7c0.553,0,1-0.447,1-1V6h4v8H2V6z"/></symbol><symbol id="document" viewBox="0 0 512 512"><title>document</title><g> <g> <path d="M447.933,103.629c-0.034-3.076-1.224-6.09-3.485-8.352L352.683,3.511c-0.004-0.004-0.007-0.005-0.011-0.008 C350.505,1.338,347.511,0,344.206,0H89.278C75.361,0,64.04,11.32,64.04,25.237v461.525c0,13.916,11.32,25.237,25.237,25.237 h333.444c13.916,0,25.237-11.32,25.237-25.237V103.753C447.96,103.709,447.937,103.672,447.933,103.629z M356.194,40.931 l50.834,50.834h-49.572c-0.695,0-1.262-0.567-1.262-1.262V40.931z M423.983,486.763c0,0.695-0.566,1.261-1.261,1.261H89.278 c-0.695,0-1.261-0.566-1.261-1.261V25.237c0-0.695,0.566-1.261,1.261-1.261h242.94v66.527c0,13.916,11.322,25.239,25.239,25.239 h66.527V486.763z"/> </g> </g><g> <g> <path d="M362.088,164.014H149.912c-6.62,0-11.988,5.367-11.988,11.988c0,6.62,5.368,11.988,11.988,11.988h212.175 c6.62,0,11.988-5.368,11.988-11.988C374.076,169.381,368.707,164.014,362.088,164.014z"/> </g> </g><g> <g> <path d="M362.088,236.353H149.912c-6.62,0-11.988,5.368-11.988,11.988c0,6.62,5.368,11.988,11.988,11.988h212.175 c6.62,0,11.988-5.368,11.988-11.988C374.076,241.721,368.707,236.353,362.088,236.353z"/> </g> </g><g> <g> <path d="M362.088,308.691H149.912c-6.62,0-11.988,5.368-11.988,11.988c0,6.621,5.368,11.988,11.988,11.988h212.175 c6.62,0,11.988-5.367,11.988-11.988C374.076,314.06,368.707,308.691,362.088,308.691z"/> </g> </g><g> <g> <path d="M256,381.031H149.912c-6.62,0-11.988,5.368-11.988,11.988c0,6.621,5.368,11.988,11.988,11.988H256 c6.62,0,11.988-5.367,11.988-11.988C267.988,386.398,262.62,381.031,256,381.031z"/> </g> </g></symbol><symbol id="gallery" viewBox="0 0 430.23 430.23"><title>gallery</title><path d="M217.875,159.668c-24.237,0-43.886,19.648-43.886,43.886c0,24.237,19.648,43.886,43.886,43.886 c24.237,0,43.886-19.648,43.886-43.886C261.761,179.316,242.113,159.668,217.875,159.668z M217.875,226.541 c-12.696,0-22.988-10.292-22.988-22.988c0-12.696,10.292-22.988,22.988-22.988h0c12.696,0,22.988,10.292,22.988,22.988 C240.863,216.249,230.571,226.541,217.875,226.541z"/><path d="M392.896,59.357L107.639,26.966c-11.071-1.574-22.288,1.658-30.824,8.882c-8.535,6.618-14.006,16.428-15.151,27.167 l-5.224,42.841H40.243c-22.988,0-40.229,20.375-40.229,43.363V362.9c-0.579,21.921,16.722,40.162,38.644,40.741 c0.528,0.014,1.057,0.017,1.585,0.01h286.824c22.988,0,43.886-17.763,43.886-40.751v-8.359 c7.127-1.377,13.888-4.224,19.853-8.359c8.465-7.127,13.885-17.22,15.151-28.212l24.033-212.114 C432.44,82.815,415.905,62.088,392.896,59.357z M350.055,362.9c0,11.494-11.494,19.853-22.988,19.853H40.243 c-10.383,0.305-19.047-7.865-19.352-18.248c-0.016-0.535-0.009-1.07,0.021-1.605v-38.661l80.98-59.559 c9.728-7.469,23.43-6.805,32.392,1.567l56.947,50.155c8.648,7.261,19.534,11.32,30.825,11.494 c8.828,0.108,17.511-2.243,25.078-6.792l102.922-59.559V362.9z M350.055,236.99l-113.894,66.351 c-9.78,5.794-22.159,4.745-30.825-2.612l-57.469-50.678c-16.471-14.153-40.545-15.021-57.992-2.09l-68.963,50.155V149.219 c0-11.494,7.837-22.465,19.331-22.465h286.824c12.28,0.509,22.197,10.201,22.988,22.465V236.99z M409.112,103.035 c-0.007,0.069-0.013,0.139-0.021,0.208l-24.555,212.114c0.042,5.5-2.466,10.709-6.792,14.106c-2.09,2.09-6.792,3.135-6.792,4.18 V149.219c-0.825-23.801-20.077-42.824-43.886-43.363H77.337l4.702-40.751c1.02-5.277,3.779-10.059,7.837-13.584 c4.582-3.168,10.122-4.645,15.674-4.18l284.735,32.914C401.773,81.346,410.203,91.545,409.112,103.035z"/></symbol><symbol id="upload" viewBox="0 0 486.3 486.3"><title>upload</title><path d="M395.5,135.8c-5.2-30.9-20.5-59.1-43.9-80.5c-26-23.8-59.8-36.9-95-36.9c-27.2,0-53.7,7.8-76.4,22.5 c-18.9,12.2-34.6,28.7-45.7,48.1c-4.8-0.9-9.8-1.4-14.8-1.4c-42.5,0-77.1,34.6-77.1,77.1c0,5.5,0.6,10.8,1.6,16 C16.7,200.7,0,232.9,0,267.2c0,27.7,10.3,54.6,29.1,75.9c19.3,21.8,44.8,34.7,72,36.2c0.3,0,0.5,0,0.8,0h86 c7.5,0,13.5-6,13.5-13.5s-6-13.5-13.5-13.5h-85.6C61.4,349.8,27,310.9,27,267.1c0-28.3,15.2-54.7,39.7-69 c5.7-3.3,8.1-10.2,5.9-16.4c-2-5.4-3-11.1-3-17.2c0-27.6,22.5-50.1,50.1-50.1c5.9,0,11.7,1,17.1,3c6.6,2.4,13.9-0.6,16.9-6.9 c18.7-39.7,59.1-65.3,103-65.3c59,0,107.7,44.2,113.3,102.8c0.6,6.1,5.2,11,11.2,12c44.5,7.6,78.1,48.7,78.1,95.6 c0,49.7-39.1,92.9-87.3,96.6h-73.7c-7.5,0-13.5,6-13.5,13.5s6,13.5,13.5,13.5h74.2c0.3,0,0.6,0,1,0c30.5-2.2,59-16.2,80.2-39.6 c21.1-23.2,32.6-53,32.6-84C486.2,199.5,447.9,149.6,395.5,135.8z"/><path d="M324.2,280c5.3-5.3,5.3-13.8,0-19.1l-71.5-71.5c-2.5-2.5-6-4-9.5-4s-7,1.4-9.5,4l-71.5,71.5c-5.3,5.3-5.3,13.8,0,19.1 c2.6,2.6,6.1,4,9.5,4s6.9-1.3,9.5-4l48.5-48.5v222.9c0,7.5,6,13.5,13.5,13.5s13.5-6,13.5-13.5V231.5l48.5,48.5 C310.4,285.3,318.9,285.3,324.2,280z"/></symbol><symbol id="menu-2" viewBox="0 0 512 512"><title>menu-2</title><g> <g> <path d="M491.318,235.318H20.682C9.26,235.318,0,244.577,0,256s9.26,20.682,20.682,20.682h470.636 c11.423,0,20.682-9.259,20.682-20.682C512,244.578,502.741,235.318,491.318,235.318z"/> </g> </g><g> <g> <path d="M491.318,78.439H20.682C9.26,78.439,0,87.699,0,99.121c0,11.422,9.26,20.682,20.682,20.682h470.636 c11.423,0,20.682-9.26,20.682-20.682C512,87.699,502.741,78.439,491.318,78.439z"/> </g> </g><g> <g> <path d="M491.318,392.197H20.682C9.26,392.197,0,401.456,0,412.879s9.26,20.682,20.682,20.682h470.636 c11.423,0,20.682-9.259,20.682-20.682S502.741,392.197,491.318,392.197z"/> </g> </g></symbol><symbol id="android-character-symbol" viewBox="0 0 475.071 475.071"><title>android-character-symbol</title><path d="M65.947,153.884c-8.183,0-15.136,2.853-20.844,8.566c-5.708,5.711-8.564,12.562-8.564,20.555v122.772 c0,8.179,2.855,15.126,8.564,20.837c5.708,5.712,12.657,8.562,20.841,8.562c8.186,0,15.085-2.851,20.699-8.562 c5.618-5.711,8.425-12.658,8.425-20.837V183.005c0-7.996-2.857-14.847-8.565-20.555C80.794,156.74,73.939,153.884,65.947,153.884z "/><path d="M106.494,349.457c0,8.754,3.046,16.177,9.136,22.269c6.091,6.085,13.512,9.13,22.27,9.13h21.128l0.288,64.81 c0,8.186,2.855,15.129,8.564,20.841c5.708,5.711,12.562,8.565,20.555,8.565c8.188,0,15.133-2.854,20.844-8.565 c5.711-5.712,8.564-12.655,8.564-20.841v-64.81h39.397v64.81c0,8.186,2.854,15.129,8.562,20.841 c5.715,5.711,12.662,8.565,20.848,8.565c8.179,0,15.126-2.854,20.834-8.565c5.708-5.712,8.559-12.655,8.559-20.841v-64.81h21.416 c8.56,0,15.89-3.039,21.98-9.13c6.092-6.092,9.138-13.515,9.138-22.269V159.308H106.494V349.457z"/><path d="M302.345,43.682L322.61,6.279c1.335-2.474,0.855-4.377-1.424-5.708c-2.478-1.143-4.38-0.572-5.708,1.714L294.918,39.97 c-18.082-7.994-37.205-11.991-57.384-11.991c-20.174,0-39.304,3.997-57.387,11.991L159.591,2.286 c-1.328-2.286-3.234-2.857-5.708-1.714c-2.285,1.331-2.758,3.234-1.426,5.708l20.271,37.402 c-20.559,10.467-36.923,25.076-49.108,43.824c-12.181,18.749-18.273,39.259-18.273,61.525h264.095 c0-22.266-6.091-42.777-18.273-61.525C338.982,68.758,322.717,54.148,302.345,43.682z M185.144,98.068 c-2.187,2.19-4.803,3.284-7.849,3.284c-3.046,0-5.614-1.093-7.71-3.284c-2.091-2.187-3.14-4.805-3.14-7.85 c0-3.046,1.049-5.664,3.14-7.854c2.093-2.19,4.665-3.282,7.71-3.282c3.042,0,5.659,1.091,7.849,3.282 c2.19,2.19,3.284,4.808,3.284,7.854C188.428,93.264,187.334,95.878,185.144,98.068z M305.489,98.068 c-2.098,2.19-4.668,3.284-7.713,3.284c-3.046,0-5.657-1.093-7.848-3.284c-2.19-2.187-3.281-4.805-3.281-7.85 c0-3.046,1.091-5.664,3.281-7.854c2.19-2.19,4.802-3.282,7.848-3.282c3.045,0,5.615,1.091,7.713,3.282 c2.088,2.19,3.139,4.808,3.139,7.854C308.628,93.264,307.58,95.878,305.489,98.068z"/><path d="M429.964,162.306c-5.708-5.614-12.655-8.422-20.841-8.422c-7.991,0-14.843,2.808-20.551,8.422 c-5.711,5.616-8.568,12.517-8.568,20.699v122.772c0,8.179,2.857,15.126,8.568,20.837c5.708,5.712,12.56,8.562,20.551,8.562 c8.186,0,15.133-2.851,20.841-8.562c5.715-5.711,8.568-12.658,8.568-20.837V183.005 C438.532,174.822,435.679,167.921,429.964,162.306z"/></symbol><symbol id="android" viewBox="0 0 57.001 57.001"><title>android</title><path d="M35.361,5.677l2.497-4.162c0.284-0.474,0.131-1.088-0.343-1.372c-0.475-0.285-1.088-0.132-1.372,0.343l-2.635,4.392 c-1.569-0.558-3.249-0.878-5.007-0.878s-3.438,0.32-5.007,0.878l-2.635-4.392c-0.284-0.475-0.898-0.627-1.372-0.343 s-0.627,0.898-0.343,1.372l2.497,4.162c-4.827,2.495-8.14,7.525-8.14,13.324c0,0.553,0.448,1,1,1h28c0.552,0,1-0.447,1-1 C43.5,13.203,40.188,8.173,35.361,5.677z M15.539,18.001c0.512-6.703,6.13-12,12.962-12s12.45,5.297,12.962,12H15.539z"/><path d="M35.478,11.364H34.16c-0.364,0-0.659,0.295-0.659,0.659v1.318c0,0.364,0.295,0.659,0.659,0.659h1.319 c0.364,0,0.659-0.295,0.659-0.659v-1.318C36.138,11.659,35.842,11.364,35.478,11.364z"/><path d="M22.841,11.364h-1.319c-0.364,0-0.659,0.295-0.659,0.659v1.318c0,0.364,0.295,0.659,0.659,0.659h1.319 c0.364,0,0.659-0.295,0.659-0.659v-1.318C23.5,11.659,23.205,11.364,22.841,11.364z"/><path d="M42.5,21.001h-28c-0.552,0-1,0.447-1,1v20.171c0,2.663,2.169,4.829,4.834,4.829H19.5v6.006c0,2.202,1.794,3.994,4,3.994 s4-1.792,4-3.994v-6.006h2v6.006c0,2.202,1.794,3.994,4,3.994s4-1.792,4-3.994v-6.006h1.166c2.666,0,4.834-2.166,4.834-4.829 V22.001C43.5,21.448,43.053,21.001,42.5,21.001z M41.5,42.172c0,1.56-1.271,2.829-2.834,2.829H36.5c-0.552,0-1,0.447-1,1v7.006 c0,1.1-0.897,1.994-2,1.994s-2-0.895-2-1.994v-7.006c0-0.553-0.448-1-1-1h-4c-0.552,0-1,0.447-1,1v7.006 c0,1.1-0.897,1.994-2,1.994s-2-0.895-2-1.994v-7.006c0-0.553-0.448-1-1-1h-2.165c-1.563,0-2.835-1.27-2.835-2.829V23.001h26 V42.172z"/><path d="M48,21.001c-1.93,0-3.5,1.572-3.5,3.504v13.992c0,1.932,1.57,3.504,3.5,3.504s3.5-1.572,3.5-3.504V24.505 C51.5,22.573,49.93,21.001,48,21.001z M49.5,38.497c0,0.829-0.673,1.504-1.5,1.504s-1.5-0.675-1.5-1.504V24.505 c0-0.829,0.673-1.504,1.5-1.504s1.5,0.675,1.5,1.504V38.497z"/><path d="M9,21.001c-1.93,0-3.5,1.572-3.5,3.504v13.992c0,1.932,1.57,3.504,3.5,3.504s3.5-1.572,3.5-3.504V24.505 C12.5,22.573,10.93,21.001,9,21.001z M10.5,38.497c0,0.829-0.673,1.504-1.5,1.504s-1.5-0.675-1.5-1.504V24.505 c0-0.829,0.673-1.504,1.5-1.504s1.5,0.675,1.5,1.504V38.497z"/></symbol><symbol id="linkedin-logo" viewBox="0 0 430.117 430.118"><title>linkedin-logo</title><path id="LinkedIn__x28_alt_x29_" d="M398.355,0H31.782C14.229,0,0.002,13.793,0.002,30.817v368.471 c0,17.025,14.232,30.83,31.78,30.83h366.573c17.549,0,31.76-13.814,31.76-30.83V30.817C430.115,13.798,415.904,0,398.355,0z M130.4,360.038H65.413V165.845H130.4V360.038z M97.913,139.315h-0.437c-21.793,0-35.92-14.904-35.92-33.563 c0-19.035,14.542-33.535,36.767-33.535c22.227,0,35.899,14.496,36.331,33.535C134.654,124.415,120.555,139.315,97.913,139.315z M364.659,360.038h-64.966V256.138c0-26.107-9.413-43.921-32.907-43.921c-17.973,0-28.642,12.018-33.327,23.621 c-1.736,4.144-2.166,9.94-2.166,15.728v108.468h-64.954c0,0,0.85-175.979,0-194.192h64.964v27.531 c8.624-13.229,24.035-32.1,58.534-32.1c42.76,0,74.822,27.739,74.822,87.414V360.038z M230.883,193.99 c0.111-0.182,0.266-0.401,0.42-0.614v0.614H230.883z"/></symbol><symbol id="www" viewBox="0 -27 512 511"><title>www</title><path d="m310.003906 168.5c-48.523437 0-88 39.476562-88 88s39.476563 88 88 88c48.523438 0 88-39.476562 88-88s-39.476562-88-88-88zm0 156c-37.496094 0-68-30.503906-68-68s30.503906-68 68-68 68 30.503906 68 68-30.503906 68-68 68zm0 0"/><path d="m310.003906 211.503906c-5.523437 0-10 4.476563-10 10 0 5.523438 4.476563 10 10 10 13.78125 0 24.996094 11.214844 24.996094 24.996094 0 5.523438 4.476562 10 10 10s10-4.476562 10-10c0-24.8125-20.183594-44.996094-44.996094-44.996094zm0 0"/><path d="m61.644531 75.902344c-2.539062-4.902344-8.570312-6.820313-13.476562-4.285156-4.90625 2.539062-6.824219 8.574218-4.285157 13.480468l26.917969 52c1.742188 3.367188 5.265625 5.425782 9.03125 5.402344 3.789063-.058594 7.222657-2.253906 8.863281-5.671875l16.296876-33.929687 17.699218 34.199218c1.722656 3.320313 5.148438 5.402344 8.882813 5.402344h.148437c3.792969-.058594 7.222656-2.253906 8.867188-5.671875l24.972656-52c2.390625-4.976563.292969-10.953125-4.683594-13.34375-4.980468-2.390625-10.953125-.292969-13.34375 4.6875l-16.296875 33.929687-17.703125-34.199218c-1.742187-3.367188-5.257812-5.433594-9.027344-5.402344-3.792968.058594-7.226562 2.253906-8.867187 5.671875l-16.292969 33.929687zm0 0"/><path d="m125.988281 20.5c2.632813 0 5.210938-1.070312 7.070313-2.929688 1.863281-1.859374 2.929687-4.441406 2.929687-7.070312s-1.066406-5.210938-2.929687-7.070312c-1.859375-1.859376-4.4375-2.929688-7.070313-2.929688-2.628906 0-5.207031 1.070312-7.066406 2.929688-1.863281 1.859374-2.933594 4.441406-2.933594 7.070312s1.070313 5.210938 2.933594 7.070312c1.859375 1.859376 4.4375 2.929688 7.066406 2.929688zm0 0"/><path d="m512 172.5v-132c0-22.054688-17.945312-40-40-40h-304.011719c-5.519531 0-10 4.476562-10 10s4.480469 10 10 10h304.011719c11.027344 0 20 8.972656 20 20v132c0 11.027344-8.972656 20-20 20h-48c-.289062 0-.570312.019531-.851562.042969-15.433594-27.195313-40.382813-48.304688-70.292969-58.777344l14.824219-30.863281 17.703124 34.195312c1.71875 3.324219 5.144532 5.402344 8.878907 5.402344h.152343c3.789063-.058594 7.222657-2.253906 8.863282-5.671875l24.972656-52c2.390625-4.976563.292969-10.949219-4.683594-13.339844-4.976562-2.394531-10.953125-.296875-13.34375 4.683594l-16.292968 33.929687-17.703126-34.199218c-1.742187-3.367188-5.253906-5.433594-9.03125-5.398438-3.792968.054688-7.222656 2.25-8.863281 5.667969l-16.296875 33.929687-17.699218-34.199218c-2.539063-4.902344-8.574219-6.820313-13.480469-4.28125-4.90625 2.539062-6.820313 8.570312-4.285157 13.476562l22.132813 42.753906c-6.105469-.882812-12.347656-1.351562-18.695313-1.351562-12.292968 0-24.195312 1.71875-35.476562 4.921875l22.378906-46.59375c2.390625-4.976563.292969-10.949219-4.6875-13.339844-4.976562-2.394531-10.953125-.296875-13.339844 4.683594l-16.296874 33.929687-17.703126-34.199218c-1.742187-3.367188-5.238281-5.433594-9.03125-5.398438-3.789062.054688-7.222656 2.25-8.863281 5.667969l-16.292969 33.929687-17.703124-34.199218c-2.539063-4.902344-8.570313-6.820313-13.476563-4.28125-4.90625 2.539062-6.824219 8.570312-4.285156 13.476562l26.917969 52c1.742187 3.367188 5.25 5.425782 9.03125 5.402344 3.789062-.058594 7.222656-2.253906 8.863281-5.671875l16.296875-33.925781 17.699218 34.195312c.296876.574219.660157 1.09375 1.054688 1.589844-24.523438 11.476562-44.898438 30.382812-58.207031 53.8125h-156.886719c-11.027344 0-20-8.972656-20-20v-132c0-11.027344 8.972656-20 20-20h40.992188c5.523437 0 10-4.476562 10-10s-4.476563-10-10-10h-40.992188c-22.054688 0-40 17.945312-40 40v132c0 22.058594 17.945312 40 40 40h147.675781c-4.960937 13.75-7.671875 28.5625-7.671875 44 0 71.683594 58.316406 130 130 130 23.554688 0 45.667969-6.296875 64.742188-17.296875l79.367187 79.367187c6.609375 6.609376 15.292969 9.914063 23.976563 9.914063s17.367187-3.304687 23.976562-9.914063c13.222656-13.222656 13.222656-34.734374 0-47.957031l-31.183594-31.183593c-3.90625-3.902344-10.238281-3.90625-14.140624 0-3.90625 3.90625-3.90625 10.234374 0 14.140624l31.183593 31.1875c5.421875 5.421876 5.421875 14.246094 0 19.671876-5.421875 5.421874-14.246093 5.421874-19.667969 0l-76.738281-76.742188c29.546875-23.847656 48.484375-60.34375 48.484375-101.1875 0-15.4375-2.710937-30.25-7.671875-44h39.667969c22.058594 0 40-17.945312 40-40zm-201.996094 194c-60.652344 0-110-49.347656-110-110s49.347656-110 110-110 110 49.347656 110 110-49.34375 110-110 110zm0 0"/><path d="m433.019531 345.710938c-1.859375 1.859374-2.929687 4.4375-2.929687 7.070312 0 2.628906 1.070312 5.207031 2.929687 7.070312 1.871094 1.859376 4.441407 2.929688 7.070313 2.929688s5.210937-1.070312 7.070312-2.929688c1.871094-1.863281 2.929688-4.441406 2.929688-7.070312 0-2.632812-1.058594-5.210938-2.929688-7.070312-1.859375-1.859376-4.429687-2.929688-7.070312-2.929688-2.628906 0-5.210938 1.070312-7.070313 2.929688zm0 0"/></symbol><symbol id="clock" viewBox="0 0 511.992 511.992"><title>clock</title><path id="XMLID_389_" d="M511.005,279.646c-4.597-46.238-25.254-89.829-58.168-122.744 c-28.128-28.127-62.556-46.202-98.782-54.239V77.255c14.796-3.681,25.794-17.074,25.794-32.993c0-18.748-15.252-34-34-34h-72 c-18.748,0-34,15.252-34,34c0,15.918,10.998,29.311,25.793,32.993v25.479c-36.115,8.071-70.429,26.121-98.477,54.169 c-6.138,6.138-11.798,12.577-16.979,19.269c-0.251-0.019-0.502-0.038-0.758-0.038H78.167c-5.522,0-10,4.477-10,10s4.478,10,10,10 h58.412c-7.332,12.275-13.244,25.166-17.744,38.436H10c-5.522,0-10,4.477-10,10s4.478,10,10,10h103.184 c-2.882,12.651-4.536,25.526-4.963,38.437H64c-5.522,0-10,4.477-10,10s4.478,10,10,10h44.54 c0.844,12.944,2.925,25.82,6.244,38.437H50c-5.522,0-10,4.477-10,10s4.478,10,10,10h71.166 c9.81,25.951,25.141,50.274,45.999,71.132c32.946,32.946,76.582,53.608,122.868,58.181c6.606,0.652,13.217,0.975,19.819,0.975 c39.022,0,77.548-11.293,110.238-32.581c4.628-3.014,5.937-9.209,2.923-13.837s-9.209-5.937-13.837-2.923 c-71.557,46.597-167.39,36.522-227.869-23.957c-70.962-70.962-70.962-186.425,0-257.388c70.961-70.961,186.424-70.961,257.387,0 c60.399,60.4,70.529,156.151,24.086,227.673c-3.008,4.632-1.691,10.826,2.94,13.833c4.634,3.008,10.826,1.691,13.833-2.941 C504.367,371.396,515.537,325.241,511.005,279.646z M259.849,44.263c0-7.72,6.28-14,14-14h72c7.72,0,14,6.28,14,14s-6.28,14-14,14 h-1.794h-68.413h-1.793C266.129,58.263,259.849,51.982,259.849,44.263z M285.642,99.296V78.263h48.413v20.997 C317.979,97.348,301.715,97.36,285.642,99.296z"/><path id="XMLID_391_" d="M445.77,425.5c-2.64,0-5.21,1.07-7.069,2.93c-1.87,1.86-2.931,4.44-2.931,7.07 c0,2.63,1.061,5.21,2.931,7.07c1.859,1.87,4.43,2.93,7.069,2.93c2.63,0,5.2-1.06,7.07-2.93c1.86-1.86,2.93-4.44,2.93-7.07 c0-2.63-1.069-5.21-2.93-7.07C450.97,426.57,448.399,425.5,445.77,425.5z"/><path id="XMLID_394_" d="M310.001,144.609c-85.538,0-155.129,69.59-155.129,155.129s69.591,155.129,155.129,155.129 s155.129-69.59,155.129-155.129S395.539,144.609,310.001,144.609z M310.001,434.867c-74.511,0-135.129-60.619-135.129-135.129 s60.618-135.129,135.129-135.129S445.13,225.228,445.13,299.738S384.512,434.867,310.001,434.867z"/><path id="XMLID_397_" d="M373.257,222.34l-49.53,49.529c-4.142-2.048-8.801-3.205-13.726-3.205c-4.926,0-9.584,1.157-13.726,3.205 l-22.167-22.167c-3.906-3.905-10.236-3.905-14.143,0c-3.905,3.905-3.905,10.237,0,14.142l22.167,22.167 c-2.049,4.142-3.205,8.801-3.205,13.726c0,17.134,13.939,31.074,31.074,31.074s31.074-13.94,31.074-31.074 c0-4.925-1.157-9.584-3.205-13.726l48.076-48.076v0l1.453-1.453c3.905-3.905,3.905-10.237,0-14.142 S377.164,218.435,373.257,222.34z M310.001,310.812c-6.106,0-11.074-4.968-11.074-11.074s4.968-11.074,11.074-11.074 s11.074,4.968,11.074,11.074S316.107,310.812,310.001,310.812z"/><path id="XMLID_398_" d="M416.92,289.86h-9.265c-5.522,0-10,4.477-10,10s4.478,10,10,10h9.265c5.522,0,10-4.477,10-10 S422.442,289.86,416.92,289.86z"/><path id="XMLID_399_" d="M212.346,289.616h-9.264c-5.522,0-10,4.477-10,10s4.478,10,10,10h9.264c5.522,0,10-4.477,10-10 S217.868,289.616,212.346,289.616z"/><path id="XMLID_400_" d="M310.123,212.083c5.522,0,10-4.477,10-10v-9.264c0-5.523-4.478-10-10-10s-10,4.477-10,10v9.264 C300.123,207.606,304.601,212.083,310.123,212.083z"/><path id="XMLID_424_" d="M309.879,387.393c-5.522,0-10,4.477-10,10v9.264c0,5.523,4.478,10,10,10s10-4.477,10-10v-9.264 C319.879,391.87,315.401,387.393,309.879,387.393z"/><path id="XMLID_425_" d="M10,351.44c-2.63,0-5.21,1.07-7.07,2.93c-1.86,1.86-2.93,4.44-2.93,7.07c0,2.64,1.069,5.21,2.93,7.07 s4.44,2.93,7.07,2.93s5.21-1.07,7.069-2.93c1.86-1.86,2.931-4.44,2.931-7.07s-1.07-5.21-2.931-7.07 C15.21,352.51,12.63,351.44,10,351.44z"/></symbol><symbol id="scroll" viewBox="0 0 512.002 512.002"><title>scroll</title><g> <g> <path d="M234.429,112.065H130.804c-4.142,0-7.5,3.358-7.5,7.5c0,4.142,3.358,7.5,7.5,7.5h103.624c4.142,0,7.5-3.358,7.5-7.5 C241.929,115.423,238.571,112.065,234.429,112.065z"/> </g> </g><g> <g> <path d="M375.281,364.364h-55.476c-4.142,0-7.5,3.358-7.5,7.5c0,4.142,3.358,7.5,7.5,7.5h55.476c4.142,0,7.5-3.358,7.5-7.5 C382.781,367.722,379.423,364.364,375.281,364.364z"/> </g> </g><g> <g> <path d="M476.245,136.326c3.624,2.004,8.188,0.691,10.193-2.933c14.702-26.581,23.534-53.597,25.54-78.128 c0.369-4.544-3.546-8.457-8.089-8.086c-28.616,2.34-59.95,13.913-89.961,32.568c-3.246-13.176-7.346-23.47-12.447-31.253 c-7.837-11.958-18.061-18.023-30.387-18.023H43.788c-15.5,0-27.203,4.981-34.78,14.807C-5.7,64.345,1.95,94.338,2.283,95.606 c0.866,3.296,3.846,5.595,7.254,5.595h66.02c6.706,42.678,6.364,103.367,6.047,159.227c-0.161,28.362-0.328,57.689,0.353,84.417 c0.105,4.14,3.54,7.403,7.688,7.307c4.141-0.105,7.412-3.547,7.307-7.688c-0.674-26.494-0.508-55.702-0.348-83.949 c0.38-66.939,0.746-131.33-8.622-174.825c-0.892-4.139-1.907-8.261-3.094-12.326c-3.305-11.354-7.507-20.805-12.848-27.891 h299.054c13.59,0,23.251,14.091,29.469,43.043c-8.094,5.693-15.988,11.883-23.643,18.491 c-17.119,14.777-32.926,31.627-46.52,49.891H130.804c-4.142,0-7.5,3.358-7.5,7.5c0,4.142,3.358,7.5,7.5,7.5h189.147 c-5.536,8.5-10.51,17.126-14.865,25.784H130.804c-4.142,0-7.5,3.358-7.5,7.5c0,4.142,3.358,7.5,7.5,7.5h167.362 c-3.623,8.647-6.594,17.272-8.887,25.784H130.804c-4.142,0-7.5,3.358-7.5,7.5c0,4.142,3.358,7.5,7.5,7.5h155.121 c-0.625,3.574-1.103,7.112-1.46,10.615l-23.164,23.164c-2.929,2.929-2.929,7.678,0,10.606c2.836,2.835,7.689,2.918,10.607,0 l23.154-23.154c13.906-1.411,27.557-4.828,40.704-9.524c13.532-4.834,26.56-11.046,38.995-18.236 c11.985-6.93,23.434-14.783,34.292-23.37c-0.005,12.275-0.075,24.709-0.145,36.855c-0.306,53.904-0.622,109.516,4.894,150.379 c0,0-248.45,0-248.749,0c-4.753,0-8.359,4.542-7.302,9.168c0.017,0.074,0.025,0.149,0.044,0.223 c0.002,0.009,0.014,0.056,0.031,0.124c0.416,1.733,5.488,24.014-3.762,36.745c-0.027,0.038-0.054,0.076-0.082,0.114 c-5.326,7.232-14.743,9.402-23.272,9.354c-18.227-0.103-28.873-30.304-32.544-92.32c-0.245-4.134-3.792-7.285-7.93-7.043 c-4.135,0.245-7.289,3.795-7.043,7.93c2.933,49.554,10.996,106.434,47.611,106.434h327.306c15.5,0,27.203-4.981,34.78-14.807 c14.706-19.068,7.056-49.061,6.723-50.329c-0.866-3.296-3.846-5.595-7.254-5.595h-63.408c-5.665-39.92-5.35-95.978-5.042-150.293 c0.093-16.359,0.187-33.231,0.121-49.581c4.17-3.744,8.269-7.622,12.279-11.632c12.512-12.512,23.876-25.94,33.773-39.912 c2.394-3.38,1.595-8.061-1.785-10.456c-3.38-2.394-8.061-1.595-10.456,1.785c-9.41,13.283-20.223,26.061-32.139,37.976 c-9.394,9.394-19.414,18.179-29.979,26.235c-25.809,19.67-53.433,33.798-79.686,40.703c-0.845,0.221-1.694,0.428-2.542,0.637 L446.78,122.979c2.929-2.929,2.929-7.678,0-10.606c-2.929-2.929-7.678-2.929-10.606,0L302.89,245.656 c0.191-0.775,0.374-1.548,0.578-2.325c7.655-29.298,22.357-56.044,40.745-79.88c0.007-0.009,0.013-0.017,0.02-0.026 c0.057-0.075,0.116-0.149,0.173-0.223c17.148-22.423,37.502-42.413,60.249-59.131c29.873-21.906,61.914-36.383,91.291-40.864 c-3.054,19.957-10.79,41.513-22.634,62.926C471.307,129.758,472.62,134.321,476.245,136.326z M72.724,86.198H15.738v0.001 c-0.352-2.425-0.672-5.473-0.74-8.809c-0.138-6.824,0.775-16.352,5.911-22.984c4.598-5.938,11.954-8.863,22.48-8.935l4.91,0.54 c0.071,0.017,0.141,0.035,0.211,0.053c9.918,2.584,17.662,14.494,23.093,35.477C72.003,83.087,72.372,84.641,72.724,86.198z M486.142,425.801c1.138,7.949,1.966,22.564-5.128,31.762c-4.654,6.034-12.146,8.967-22.903,8.967H165.733 c9.646-12.683,9.518-30.105,8.252-40.729H486.142z"/> </g> </g></symbol></svg>